<svg width="466" height="466" viewBox="0 0 466 466" fill="none" xmlns="http://www.w3.org/2000/svg">
<g clip-path="url(#clip0_4638_1329)">
<rect x="0.180176" y="-0.119995" width="466" height="466" fill="white"/>
<path d="M28.0601 192.892H95.4489V224.602C103.21 209.354 106.473 205.394 114.646 200.516C126.482 193.505 148.129 189.545 173.862 189.545C203.269 189.545 225.317 195.025 236.752 205.394C245.326 213.324 249.413 225.826 249.413 246.554V255.698H183.661C183.249 254.78 183.249 253.872 183.249 253.566V251.739C183.249 237.104 172.225 230.705 146.08 230.705C126.071 230.705 112.998 234.665 105.237 243.207C99.926 249.31 98.2894 255.403 98.2894 269.732V335.283H28.0601V192.892Z" fill="#0000FF"/>
<path d="M438.94 331.915H370.326V298.991C360.928 326.73 340.106 335.273 282.516 335.273C238.41 335.273 213.902 329.476 197.567 315.147C184.906 304.176 180.007 290.449 180.007 265.149V189.535H250.257V263.016C250.257 288.622 261.281 294.419 309.062 294.419C356.842 294.419 368.689 285.275 368.689 253.872V189.545H438.94V331.925V331.915ZM294.374 163.316H237.607V131.607H294.374V163.316ZM381.36 163.316H324.594V131.607H381.36V163.316Z" fill="#0000FF"/>
</g>
<defs>
<clipPath id="clip0_4638_1329">
<rect width="466" height="466" fill="white"/>
</clipPath>
</defs>
</svg>
